<svg width="71" height="72" viewBox="0 0 71 72" fill="none" xmlns="http://www.w3.org/2000/svg">
<g id="icon_shapes_37">
<g id="Vector">
<path d="M17.4017 26.8136C15.6629 18.0763 15.2559 10.2755 16.1569 4.51787C11.0769 2.87987 7.03233 2.99447 4.78972 5.23511C0.788588 9.23624 3.56269 18.9852 10.9979 30.1133C12.9975 28.9831 15.1393 27.8766 17.4017 26.8116V26.8136Z" fill="#FD4360"/>
<path d="M66.9268 16.6022C68.5648 11.5222 68.4503 7.47764 66.2096 5.23503C62.2085 1.2339 52.4595 4.00801 41.3314 11.4432C42.4616 13.4428 43.5681 15.5846 44.6331 17.847C53.3704 16.1082 61.1711 15.7012 66.9288 16.6022H66.9268Z" fill="#FD4360"/>
<path d="M4.07247 55.2896C2.43448 60.3695 2.54905 64.4141 4.78969 66.6567C8.79082 70.6578 18.5398 67.8837 29.6679 60.4485C28.5377 58.449 27.4312 56.3071 26.3662 54.0447C17.6289 55.7835 9.82813 56.1905 4.07044 55.2896H4.07247Z" fill="#FD4360"/>
<path d="M60.0034 41.7767C58.0038 42.9069 55.862 44.0134 53.5996 45.0784C55.3384 53.8157 55.7455 61.6164 54.8445 67.3741C59.9244 69.0121 63.969 68.8975 66.2116 66.6569C70.2127 62.6557 67.4386 52.9068 60.0034 41.7787V41.7767Z" fill="#FD4360"/>
<path d="M56.2453 29.3468L36.7415 33.5455L28.8993 15.2016L33.098 34.7034L14.7541 42.5456L34.2579 38.3469L42.1001 56.6909L37.9014 37.189L56.2453 29.3468Z" fill="#FD4360"/>
</g>
</g>
</svg>
