<svg width="29" height="20" viewBox="0 0 29 20" fill="none" xmlns="http://www.w3.org/2000/svg">
<path d="M11.4285 14.2856L18.8427 9.99992L11.4285 5.71424V14.2856ZM27.9426 3.09997C28.1283 3.7714 28.2569 4.67139 28.3426 5.81424C28.4426 6.95709 28.4855 7.94279 28.4855 8.79993L28.5712 9.99992C28.5712 13.1285 28.3426 15.4284 27.9426 16.8999C27.5855 18.1856 26.7569 19.0141 25.4712 19.3713C24.7998 19.557 23.5712 19.6856 21.6855 19.7713C19.8284 19.8713 18.1284 19.9141 16.557 19.9141L14.2856 19.9998C8.29993 19.9998 4.57139 19.7713 3.09997 19.3713C1.81427 19.0141 0.985706 18.1856 0.628566 16.8999C0.442854 16.2284 0.314283 15.3284 0.22857 14.1856C0.12857 13.0428 0.0857135 12.057 0.0857135 11.1999L0 9.99992C0 6.87137 0.22857 4.57139 0.628566 3.09997C0.985706 1.81427 1.81427 0.985706 3.09997 0.628566C3.7714 0.442854 4.99996 0.314283 6.88566 0.228569C8.74279 0.12857 10.4428 0.0857135 12.0142 0.0857135L14.2856 0C20.2713 0 23.9998 0.22857 25.4712 0.628566C26.7569 0.985706 27.5855 1.81427 27.9426 3.09997Z" fill="#FD4360"/>
</svg>
