<svg width="16" height="16" viewBox="0 0 16 16" fill="none" xmlns="http://www.w3.org/2000/svg">
<g clip-path="url(#clip0_4_635)">
<path d="M12.9212 14.0165L13.2974 14.3846L12.9205 14.0165H12.9212ZM3.9578 12.5247L4.33323 12.1566L3.95709 12.5247H3.9578ZM1.02403 5.19599L0.648596 4.82859L1.02474 5.19668L1.02403 5.19599ZM9.51248 11.9463L9.83742 11.6328L9.08443 10.8966L8.76161 11.2101L9.51248 11.9463ZM10.9246 11.5014L12.2834 12.2203L12.7918 11.3083L11.4337 10.5901L10.9246 11.5014ZM12.5444 13.6484L11.5347 14.626L12.2863 15.3615L13.2959 14.3846L12.5444 13.6484ZM10.9189 14.9402C9.88791 15.0343 7.22149 14.9505 4.33323 12.1566L3.58094 12.8921C6.73229 15.9414 9.73219 16.0908 11.0185 15.9739L10.9182 14.9402H10.9189ZM4.33323 12.1566C1.58077 9.49275 1.12428 7.25304 1.0674 6.28091L0.00225644 6.33972C0.0733609 7.56301 0.638641 10.0456 3.58094 12.8921L4.33323 12.1566ZM5.31091 7.8806L5.51498 7.68271L4.76412 6.94721L4.56005 7.14441L5.31163 7.87991L5.31091 7.8806ZM5.6771 5.16762L4.78119 4.00245L3.92722 4.62516L4.82314 5.78965L5.6771 5.16762ZM1.76565 3.74851L0.649307 4.82789L1.40159 5.56409L2.51722 4.48471L1.76565 3.74851ZM4.93548 7.5125C4.55863 7.14441 4.55863 7.14441 4.55863 7.14579H4.55721L4.55507 7.14856C4.5215 7.1819 4.49126 7.21828 4.46477 7.25719C4.42637 7.31254 4.38442 7.38519 4.34887 7.47722C4.26229 7.71476 4.24072 7.97014 4.2863 8.21825C4.38158 8.81676 4.80536 9.60761 5.89042 10.6579L6.6427 9.92174C5.62662 8.93922 5.38486 8.34141 5.34007 8.05911C5.31874 7.92488 5.34078 7.85846 5.34718 7.84324C5.35073 7.83355 5.35215 7.83286 5.34718 7.83909C5.34091 7.84868 5.33377 7.85771 5.32585 7.86607L5.31874 7.87299C5.31644 7.87514 5.31407 7.87722 5.31163 7.87922L4.93477 7.5125H4.93548ZM5.89042 10.6579C6.97618 11.7082 7.79317 12.1179 8.40893 12.2092C8.72393 12.2562 8.97777 12.2189 9.17046 12.149C9.27822 12.1102 9.379 12.0551 9.4691 11.9857C9.48134 11.9757 9.4932 11.9654 9.50465 11.9546L9.50963 11.9504L9.51176 11.9483L9.51248 11.947C9.51248 11.947 9.51319 11.9463 9.13704 11.5782C8.76019 11.2101 8.76232 11.2094 8.76232 11.2094L8.76375 11.208L8.76517 11.2066L8.76943 11.2032L8.77654 11.1962C8.78509 11.1888 8.79412 11.1818 8.80356 11.1755C8.81067 11.1706 8.80854 11.1727 8.79859 11.1769C8.78081 11.1831 8.71113 11.2045 8.57105 11.1838C8.27668 11.1395 7.65807 10.9042 6.6427 9.92174L5.89042 10.6579ZM4.78119 4.00175C4.05592 3.06076 2.63099 2.9113 1.76565 3.74851L2.51722 4.48471C2.8955 4.11869 3.56672 4.15674 3.92722 4.62516L4.78047 4.00175H4.78119ZM1.06811 6.2816C1.05389 6.0422 1.16695 5.79172 1.40159 5.56478L0.648596 4.82859C0.266765 5.19807 -0.0340068 5.72115 0.00225644 6.33972L1.06811 6.2816ZM11.5347 14.626C11.3399 14.8156 11.1294 14.9222 10.9196 14.9409L11.0185 15.9739C11.5411 15.9261 11.9684 15.6701 12.287 15.3622L11.5347 14.626ZM5.51498 7.68271C6.21536 7.00533 6.26727 5.93495 5.67781 5.16831L4.82385 5.79034C5.1104 6.16328 5.06774 6.65246 4.76341 6.94791L5.51498 7.68271ZM12.2841 12.221C12.865 12.5282 12.9554 13.2519 12.5451 13.6491L13.2974 14.3846C14.2502 13.4622 13.9565 11.9241 12.7925 11.309L12.2841 12.221ZM9.83742 11.6335C10.1105 11.3692 10.5499 11.3042 10.9253 11.5021L11.4344 10.5908C10.6637 10.1826 9.70801 10.2954 9.08514 10.8973L9.83742 11.6335Z" fill="#E3E3E3"/>
</g>
<defs>
<clipPath id="clip0_4_635">
<rect width="16" height="16" fill="white"/>
</clipPath>
</defs>
</svg>
