<svg width="19" height="19" viewBox="0 0 19 19" fill="none" xmlns="http://www.w3.org/2000/svg">
<path fill-rule="evenodd" clip-rule="evenodd" d="M9.49998 16.7741L10.0709 16.1308C10.7187 15.3889 11.3014 14.685 11.8198 14.0155L12.2477 13.4509C14.0346 11.0433 14.9286 9.13248 14.9286 7.72015C14.9286 4.70548 12.4984 2.26172 9.49998 2.26172C6.5016 2.26172 4.07141 4.70548 4.07141 7.72015C4.07141 9.13248 4.96532 11.0433 6.75222 13.4509L7.18017 14.0155C7.91976 14.9631 8.69354 15.8827 9.49998 16.7741Z" stroke="#E3E3E3" stroke-linecap="round" stroke-linejoin="round"/>
<path d="M9.49994 9.95203C10.7492 9.95203 11.7618 8.93934 11.7618 7.69013C11.7618 6.44091 10.7492 5.42822 9.49994 5.42822C8.25073 5.42822 7.23804 6.44091 7.23804 7.69013C7.23804 8.93934 8.25073 9.95203 9.49994 9.95203Z" stroke="#E3E3E3" stroke-linecap="round" stroke-linejoin="round"/>
</svg>
