<svg width="30" height="25" viewBox="0 0 30 25" fill="none" xmlns="http://www.w3.org/2000/svg">
<path d="M29.9999 2.86806C28.8957 3.36997 27.7055 3.6998 26.4722 3.85755C27.7342 3.09751 28.7093 1.89292 29.1682 0.44455C27.978 1.16157 26.6587 1.66348 25.2676 1.95028C24.1348 0.717016 22.543 0 20.7361 0C17.3661 0 14.6128 2.75334 14.6128 6.152C14.6128 6.63957 14.6701 7.1128 14.7705 7.55735C9.66537 7.29922 5.11949 4.84703 2.09369 1.13289C1.56309 2.03633 1.26195 3.09751 1.26195 4.21605C1.26195 6.35276 2.33747 8.24568 4.00095 9.32121C2.98279 9.32121 2.03633 9.0344 1.20459 8.60419V8.64721C1.20459 11.63 3.32695 14.1252 6.13766 14.6845C5.23526 14.9314 4.28789 14.9658 3.36998 14.7849C3.75947 16.0074 4.52227 17.077 5.55116 17.8436C6.58005 18.6101 7.82328 19.0349 9.1061 19.0583C6.93158 20.7797 4.23612 21.7103 1.46271 21.6969C0.975142 21.6969 0.487571 21.6682 0 21.6109C2.72466 23.3604 5.96557 24.3785 9.43593 24.3785C20.7361 24.3785 26.9455 15 26.9455 6.86901C26.9455 6.59655 26.9455 6.33842 26.9311 6.06595C28.1357 5.20553 29.1682 4.11567 29.9999 2.86806Z" fill="#FD4360"/>
</svg>
