<svg width="17" height="17" viewBox="0 0 17 17" fill="none" xmlns="http://www.w3.org/2000/svg">
<path d="M3.79463 3.03564H13.2053C13.7094 3.03561 14.1943 3.22845 14.5606 3.57459C14.927 3.92073 15.147 4.39394 15.1755 4.89714L15.1786 5.00886V11.991C15.1786 12.495 14.9858 12.9799 14.6396 13.3463C14.2935 13.7126 13.8203 13.9326 13.3171 13.9612L13.2053 13.9642H3.79463C3.29061 13.9642 2.80569 13.7714 2.43934 13.4253C2.07299 13.0791 1.85298 12.6059 1.82445 12.1027L1.82141 11.991V5.00886C1.82138 4.50485 2.01421 4.01993 2.36035 3.65358C2.7065 3.28722 3.17971 3.06722 3.68291 3.03868L3.79463 3.03564ZM14.2678 6.62082L8.71005 9.51082C8.65622 9.5388 8.59734 9.55573 8.53686 9.56063C8.47639 9.56554 8.41555 9.5583 8.35791 9.53936L8.28991 9.51082L2.73213 6.62082V11.991C2.73214 12.2577 2.83241 12.5146 3.01304 12.7107C3.19367 12.9069 3.44145 13.0279 3.7072 13.0499L3.79463 13.0535H13.2053C13.4721 13.0535 13.7291 12.9531 13.9252 12.7724C14.1214 12.5916 14.2424 12.3437 14.2642 12.0778L14.2678 11.991V6.62082ZM13.2053 3.94636H3.79463C3.52797 3.94637 3.27108 4.04664 3.07492 4.22727C2.87877 4.4079 2.75771 4.65568 2.73577 4.92143L2.73213 5.00886V5.59414L8.49998 8.59343L14.2678 5.59414V5.00886C14.2678 4.74211 14.1675 4.48513 13.9867 4.28896C13.8059 4.0928 13.558 3.9718 13.2922 3.95L13.2053 3.94636Z" fill="#E3E3E3"/>
</svg>
