<svg width="16" height="12" viewBox="0 0 16 12" fill="none" xmlns="http://www.w3.org/2000/svg">
<path fill-rule="evenodd" clip-rule="evenodd" d="M15.6485 0.351935C15.8736 0.577091 16 0.882428 16 1.2008C16 1.51917 15.8736 1.8245 15.6485 2.04966L6.64917 11.049C6.53024 11.1679 6.38905 11.2623 6.23365 11.3267C6.07824 11.391 5.91168 11.4242 5.74348 11.4242C5.57527 11.4242 5.40871 11.391 5.25331 11.3267C5.09791 11.2623 4.95671 11.1679 4.83778 11.049L0.366546 6.57853C0.251871 6.46777 0.160402 6.33528 0.0974773 6.1888C0.0345522 6.04232 0.00143067 5.88477 4.53326e-05 5.72534C-0.00134 5.56592 0.0290387 5.40782 0.0894087 5.26026C0.149779 5.11271 0.238931 4.97865 0.351664 4.86592C0.464396 4.75319 0.598451 4.66404 0.746007 4.60367C0.893563 4.5433 1.05167 4.51292 1.21109 4.5143C1.37051 4.51569 1.52806 4.54881 1.67454 4.61173C1.82103 4.67466 1.95351 4.76613 2.06427 4.8808L5.74307 8.55961L13.9499 0.351935C14.0614 0.240363 14.1938 0.151855 14.3396 0.0914679C14.4853 0.0310813 14.6415 0 14.7992 0C14.9569 0 15.1131 0.0310813 15.2589 0.0914679C15.4046 0.151855 15.537 0.240363 15.6485 0.351935Z" fill="#FD4360"/>
</svg>
