<svg width="358" height="357" viewBox="0 0 358 357" fill="none" xmlns="http://www.w3.org/2000/svg">
<path d="M187.32 2.12481C181.065 -0.580014 177.237 -0.580014 170.982 2.12481C149.471 11.4266 159.599 90.5987 168.121 139.58C149.531 93.4693 116.386 20.8593 93.2038 24.2996C86.4627 25.3 83.2106 27.3184 79.3223 32.9152C67.0741 50.5448 108.294 103.984 140.722 141.37C102.051 110.485 46.9834 71.4677 29.8652 84.4211C24.4308 88.5333 22.546 91.8647 21.8199 98.6407C19.4706 120.566 84.7483 148.572 131.478 165.719C82.3628 157.632 11.7571 149.863 3.00518 170.102C0.300357 176.357 0.300357 180.185 3.00518 186.44C11.7571 206.679 82.3628 198.909 131.478 190.823C84.7483 207.97 19.4706 235.976 21.8199 257.901C22.546 264.677 24.4308 268.009 29.8652 272.121C46.9833 285.074 102.05 246.057 140.721 215.173C108.293 252.559 67.0739 305.997 79.322 323.627C83.2104 329.223 86.4625 331.242 93.2035 332.242C116.386 335.683 149.531 263.072 168.121 216.96C159.6 265.942 149.471 345.115 170.982 354.417C177.237 357.122 181.065 357.122 187.32 354.417C208.832 345.115 198.702 265.937 190.18 216.955C208.77 263.066 241.916 335.683 265.1 332.242C271.841 331.242 275.093 329.223 278.981 323.627C291.229 305.997 250.01 252.559 217.582 215.173C256.253 246.057 311.32 285.074 328.438 272.121C333.872 268.009 335.757 264.677 336.483 257.901C338.833 235.976 273.555 207.97 226.825 190.823C275.941 198.91 346.546 206.679 355.297 186.44C358.002 180.185 358.002 176.357 355.297 170.102C346.546 149.863 275.941 157.632 226.825 165.719C273.555 148.572 338.833 120.566 336.483 98.6407C335.757 91.8647 333.872 88.5333 328.438 84.4211C311.32 71.4677 256.252 110.485 217.581 141.37C250.01 103.984 291.229 50.5448 278.981 32.9152C275.093 27.3184 271.84 25.3 265.099 24.2996C241.916 20.8592 208.77 93.4745 190.181 139.585C198.702 90.6041 208.832 11.4269 187.32 2.12481Z" fill="#F4ADB3"/>
</svg>
