<svg width="358" height="350" viewBox="0 0 358 350" fill="none" xmlns="http://www.w3.org/2000/svg">
<path d="M0.966799 174.979C0.966799 264.512 179.142 174.979 179.142 174.979C179.142 174.979 0.966798 85.4465 0.966799 174.979Z" fill="#E55733"/>
<path d="M357.316 174.979C357.316 264.512 179.142 174.979 179.142 174.979C179.142 174.979 357.316 85.4465 357.316 174.979Z" fill="#E55733"/>
<path d="M90.054 329.283C167.592 374.05 179.141 174.979 179.141 174.979C179.141 174.979 12.5163 284.517 90.054 329.283Z" fill="#E55733"/>
<path d="M268.229 20.6754C345.766 65.4418 179.141 174.979 179.141 174.979C179.141 174.979 190.691 -24.091 268.229 20.6754Z" fill="#E55733"/>
<path d="M268.229 329.283C190.692 374.05 179.142 174.979 179.142 174.979C179.142 174.979 345.767 284.517 268.229 329.283Z" fill="#E55733"/>
<path d="M90.0544 20.6754C12.5167 65.4418 179.142 174.979 179.142 174.979C179.142 174.979 167.592 -24.091 90.0544 20.6754Z" fill="#E55733"/>
</svg>
