<svg width="358" height="357" viewBox="0 0 358 357" fill="none" xmlns="http://www.w3.org/2000/svg">
<path d="M189.702 2.12481C181.626 -0.580014 176.684 -0.580014 168.608 2.12481C148.906 8.72324 149.761 50.4809 155.849 91.68C140.434 52.9911 120.213 16.4462 99.8609 20.6287C91.5181 22.3432 87.2438 24.8239 81.6164 31.2172C68.083 46.5924 88.9794 81.4925 114.432 113.69C82.179 88.3078 47.2331 67.488 31.8876 81.0552C25.5067 86.6967 23.0354 90.9764 21.3393 99.323C17.2296 119.546 53.2946 139.551 91.7231 154.841C50.7984 148.866 9.56261 148.156 3.00908 167.724C0.304264 175.8 0.304264 180.742 3.00908 188.818C9.56261 208.386 50.7984 207.676 91.7231 201.701C53.2945 216.991 17.2295 236.996 21.3391 257.219C23.0353 265.566 25.5065 269.845 31.8874 275.487C47.2328 289.054 82.1781 268.235 114.431 242.853C88.9785 275.05 68.0826 309.95 81.6159 325.325C87.2433 331.718 91.5176 334.199 99.8604 335.913C120.213 340.096 140.435 303.55 155.849 264.86C149.761 306.06 148.906 347.819 168.608 354.417C176.684 357.122 181.626 357.122 189.702 354.417C209.405 347.818 208.55 306.058 202.461 264.858C217.876 303.548 238.098 340.096 258.451 335.913C266.793 334.199 271.068 331.718 276.695 325.325C290.228 309.95 269.333 275.05 243.88 242.853C276.133 268.235 311.078 289.054 326.424 275.487C332.805 269.845 335.276 265.566 336.972 257.219C341.082 236.996 305.017 216.991 266.588 201.701C307.513 207.676 348.748 208.386 355.301 188.818C358.006 180.742 358.006 175.8 355.301 167.724C348.748 148.156 307.513 148.866 266.588 154.841C305.017 139.551 341.081 119.546 336.972 99.323C335.276 90.9764 332.804 86.6967 326.423 81.0552C311.078 67.488 276.132 88.3078 243.879 113.69C269.332 81.4924 290.228 46.5924 276.695 31.2172C271.067 24.8239 266.793 22.3432 258.45 20.6287C238.097 16.4461 217.876 52.9925 202.461 91.6823C208.55 50.4824 209.405 8.72336 189.702 2.12481Z" fill="#F5BD33"/>
</svg>
